<svg id="icon-tag" xmlns="http://www.w3.org/2000/svg" viewBox="0 0 24 24"><defs><style>.cls-1{fill:#3fb195;}</style></defs><path class="cls-1" d="M18.67,10.87,10.73,2.93A1.81,1.81,0,0,0,9.45,2.4H1.8A1.81,1.81,0,0,0,0,4.2v7.65a1.81,1.81,0,0,0,.53,1.28l7.94,7.94a1.79,1.79,0,0,0,2.55,0l7.65-7.65a1.79,1.79,0,0,0,0-2.55ZM4.2,8.4A1.8,1.8,0,1,1,6,6.6,1.81,1.81,0,0,1,4.2,8.4Zm19.27,5-7.65,7.65a1.79,1.79,0,0,1-2.55,0h0l6.53-6.53a3.37,3.37,0,0,0,0-4.77L12.43,2.4h1.82a1.81,1.81,0,0,1,1.28.53l7.94,7.94a1.79,1.79,0,0,1,0,2.55Z"/></svg>