<svg width="40" height="38" viewBox="0 0 40 38" fill="none" xmlns="http://www.w3.org/2000/svg">
<path d="M8.114 0L2.427 6.392H13.754L8.114 0ZM4.401 12.784H11.78L13.143 7.332H11.075L10.464 10.152C10.276 10.857 9.9 10.857 9.336 10.857H6.704C6.187 10.857 5.764 10.857 5.623 10.152C5.435 9.447 4.965 7.332 4.965 7.332H3.038L4.401 12.784ZM38.147 28.435H36.69V27.495H35.75V21.573H15.775V27.495H14.835V28.435H11.357V13.724H4.824V28.435H2.145L0.5 37.6H16.997L18.172 28.905H22.402L23.342 37.6H39.51L38.147 28.435ZM8.96 17.625H7.221V15.604H8.96V17.625ZM18.172 15.839V16.779H33.118V15.839H18.172ZM36.737 19.787L33.917 17.719H17.467L14.835 19.787V20.633H36.737V19.787ZM8.96 22.278H7.221V20.257H8.96V22.278ZM20.804 27.495H17.373V24.252C17.373 23.594 18.125 23.077 19.065 23.077C20.005 23.077 20.804 23.594 20.804 24.252V27.495ZM25.316 27.495H21.932V24.252C21.932 23.594 22.684 23.077 23.624 23.077C24.564 23.077 25.316 23.594 25.316 24.252V27.495ZM29.875 27.495H26.491V24.252C26.491 23.594 27.243 23.077 28.183 23.077C29.123 23.077 29.875 23.594 29.875 24.252V27.495ZM34.246 27.495H30.862V24.252C30.862 23.594 31.614 23.077 32.554 23.077C33.494 23.077 34.246 23.594 34.246 24.252V27.495ZM8.96 28.435H7.221V25.38H8.96V28.435Z" fill="white"/>
</svg>
