<svg width="21" height="34" viewBox="0 0 21 34" fill="none" xmlns="http://www.w3.org/2000/svg">
<path d="M9.81793 33.3326C21.0039 33.3326 17.6199 30.3716 16.7269 28.5386C16.2569 27.5046 15.8339 26.3766 15.5519 25.2486C15.3639 24.4496 15.1759 23.6506 15.2699 22.8516C15.4579 20.9246 16.3979 18.2456 17.6669 17.5876C17.9959 17.3996 18.5129 17.3996 18.7949 17.2116C19.4529 16.7886 19.1709 15.7546 19.5469 15.1436C19.6409 14.9556 19.2649 13.8276 19.8289 13.0286C20.1579 12.6526 20.0169 12.0416 19.5469 11.7596C19.1709 11.4306 19.0769 10.8666 18.7949 10.4436C18.2309 9.69156 18.1369 8.84556 17.8549 8.04656C17.7609 7.57656 17.6669 7.10656 17.3379 6.82456C17.1499 6.68356 16.8209 6.54256 16.5859 6.44856C15.8339 6.11956 14.7059 5.74356 14.6119 4.80356C14.6119 4.70956 14.3769 4.52156 14.2829 4.47456C14.0949 4.38056 12.7319 4.38056 12.5439 4.47456C12.2149 4.14556 10.6639 4.14556 10.6169 3.48756C10.6169 3.15856 10.1939 2.92356 10.0059 2.78256C9.11293 2.31256 8.26693 2.82956 8.36093 1.88956C8.45493 1.46656 8.45493 1.27856 8.21993 0.949563C7.79693 0.432561 7.37393 0.714563 7.09193 1.09056C6.66893 1.74856 6.19893 2.35956 5.82293 3.01756C5.21193 4.05156 4.74193 4.99156 4.78893 6.16656C4.78893 6.96556 4.74193 7.67056 5.58793 8.09356C6.05793 8.37556 6.43393 8.75156 6.38693 9.45656C6.38693 9.59756 6.48093 9.69156 6.57493 9.83256C7.89093 11.3836 7.42093 11.4776 8.78393 12.3706C9.11293 12.5586 9.58293 12.6526 9.77093 13.0286C10.0999 13.5926 10.0999 14.2036 10.5229 14.7206C10.7579 15.0026 10.8049 15.3316 11.0399 15.6136C11.3219 15.8486 11.6039 16.2246 11.6509 16.6476C11.6979 16.9296 11.5099 17.2116 11.5099 17.4936C11.5099 17.5876 11.6039 17.7756 11.6039 17.8226C11.6039 17.9636 11.4629 18.0576 11.4629 18.1516C11.4629 18.4806 11.6509 18.5276 11.6509 19.0446C11.6509 19.3266 11.6039 19.5616 11.6039 19.7496C11.5569 20.1256 10.8989 21.7706 9.67693 23.3216C8.36093 25.0606 7.98493 25.4366 7.32693 26.2356C6.48093 27.2226 5.30593 27.5516 4.17793 28.0686C1.68693 29.8076 0.13593 29.9956 1.49893 31.4996C2.43893 32.5336 4.13093 32.8626 5.39993 33.0506C6.95093 33.2856 8.40793 33.3326 9.81793 33.3326Z" fill="white"/>
</svg>
