<svg width="19" height="30" viewBox="0 0 19 30" fill="none" xmlns="http://www.w3.org/2000/svg">
<path d="M9.49996 0.641495C4.47095 0.641495 0.428955 4.58949 0.428955 10.0415C0.428955 14.2715 3.53096 19.1595 6.49196 22.6375L6.96196 25.3165L7.19696 29.3585H11.803L12.038 25.3165L12.508 22.6375C15.469 19.1595 18.571 14.2715 18.571 10.0415C18.571 4.58949 14.529 0.641495 9.49996 0.641495ZM9.49996 1.5815C10.863 2.9915 11.521 6.6575 11.521 10.0415C11.521 13.5665 10.722 18.5015 10.017 21.6975H8.98295C8.27796 18.5015 7.47895 13.5665 7.47895 10.0415C7.47895 6.6575 8.13695 2.9915 9.49996 1.5815ZM1.55696 10.0415C1.55696 6.1405 3.71896 2.9445 7.19696 1.8165C5.36396 3.50849 4.14196 5.9525 4.14196 10.0415C4.14196 14.1775 5.92796 18.1255 7.61996 21.6975H6.82096C4.56496 18.5485 1.55696 14.0835 1.55696 10.0415ZM12.179 21.6975H11.38C13.072 18.1255 14.858 14.1775 14.858 10.0415C14.858 5.9525 13.636 3.50849 11.803 1.8165C15.281 2.9445 17.443 6.1405 17.443 10.0415C17.443 14.0835 14.435 18.5485 12.179 21.6975ZM11.098 25.3165H7.90196L7.43196 22.6375H11.568L11.098 25.3165Z" fill="white"/>
</svg>
