<svg width="49" height="34" viewBox="0 0 49 34" fill="none" xmlns="http://www.w3.org/2000/svg">
<path d="M3.02102 5.203H45.979C46.073 5.203 46.12 5.156 46.12 5.109V4.357C46.12 4.31 46.073 4.263 45.979 4.263C44.475 4.263 42.971 2.289 42.971 0.502995C42.971 0.455996 42.924 0.408997 42.83 0.408997H6.17002C6.07602 0.408997 6.02902 0.455996 6.02902 0.549995C6.02902 2.336 4.52502 4.263 3.02102 4.263C2.92702 4.263 2.88002 4.31 2.88002 4.404V5.062C2.88002 5.156 2.92702 5.203 3.02102 5.203ZM48.141 8.446C46.449 8.446 45.086 7.788 45.086 6.284C45.086 6.18999 45.039 6.143 44.945 6.143H3.86702C3.86702 7.741 2.55102 8.446 0.859018 8.446C0.765018 8.446 0.718018 8.54 0.718018 8.634V9.245C0.718018 9.292 0.765018 9.386 0.859018 9.386H48.141C48.235 9.386 48.282 9.292 48.282 9.245V8.634C48.282 8.54 48.235 8.446 48.141 8.446ZM44.522 10.279H4.43102C4.38402 10.279 4.33702 10.373 4.33702 10.42V31.523C4.33702 31.57 4.38402 31.664 4.43102 31.664H12.609V30.724H14.254V29.079H10.87V26.494C10.87 26.024 11.105 25.648 11.481 25.413V22.546H10.87V19.961C10.87 19.256 11.481 18.645 12.233 18.645C13.032 18.645 13.643 19.256 13.643 19.961V21.982C14.348 21.841 14.818 21.465 14.818 20.76V20.431H15.382V19.961C15.382 19.209 16.04 18.645 16.792 18.645C17.544 18.645 18.155 19.209 18.155 19.961V20.431H20.27V18.974H28.636V20.431H30.845V19.961C30.845 19.209 31.456 18.645 32.208 18.645C32.96 18.645 33.618 19.209 33.618 19.961V20.431H34.182V20.713C34.182 21.418 34.652 21.888 35.357 22.029V19.961C35.357 19.256 35.968 18.645 36.767 18.645C37.519 18.645 38.13 19.256 38.13 19.961V22.546H37.237V25.272C37.754 25.46 38.13 25.93 38.13 26.494V29.079H34.746V30.724H36.297V31.664H44.522C44.569 31.664 44.616 31.617 44.663 31.617V10.42C44.663 10.373 44.616 10.279 44.522 10.279ZM9.08402 16.107H6.31102V13.522C6.31102 12.817 6.96902 12.206 7.72102 12.206C8.47302 12.206 9.08402 12.817 9.08402 13.522V16.107ZM13.643 16.107H10.87V13.522C10.87 12.817 11.481 12.206 12.233 12.206C13.032 12.206 13.643 12.817 13.643 13.522V16.107ZM18.155 16.107H15.382V13.522C15.382 12.817 16.04 12.206 16.792 12.206C17.544 12.206 18.155 12.817 18.155 13.522V16.107ZM33.618 16.107H30.845V13.522C30.845 12.817 31.456 12.206 32.208 12.206C32.96 12.206 33.618 12.817 33.618 13.522V16.107ZM38.13 16.107H35.357V13.522C35.357 12.817 35.968 12.206 36.767 12.206C37.519 12.206 38.13 12.817 38.13 13.522V16.107ZM42.642 16.107H39.869V13.522C39.869 12.817 40.527 12.206 41.279 12.206C42.031 12.206 42.642 12.817 42.642 13.522V16.107ZM28.636 16.107H20.27V12.488H28.636V16.107ZM9.08402 22.546H6.31102V19.961C6.31102 19.256 6.96902 18.645 7.72102 18.645C8.47302 18.645 9.08402 19.256 9.08402 19.961V22.546ZM42.642 22.546H39.869V19.961C39.869 19.256 40.527 18.645 41.279 18.645C42.031 18.645 42.642 19.256 42.642 19.961V22.546ZM35.357 32.604V31.664H33.806V26.682H36.532V25.742C35.404 25.742 34.37 25.225 33.947 24.097H36.532V23.157C35.075 23.157 33.383 22.593 33.383 21.089H15.617C15.617 22.593 13.878 23.157 12.421 23.157V24.097H15.006C14.63 25.225 13.596 25.742 12.421 25.742V26.682H15.194V31.664H13.549V32.604H12.28V33.591H36.626V32.604H35.357ZM9.08402 29.079H6.31102V26.494C6.31102 25.789 6.96902 25.178 7.72102 25.178C8.47302 25.178 9.08402 25.789 9.08402 26.494V29.079ZM42.642 29.079H39.869V26.494C39.869 25.789 40.527 25.178 41.279 25.178C42.031 25.178 42.642 25.789 42.642 26.494V29.079ZM16.651 29.596C16.651 28.374 17.591 27.434 18.766 27.434C19.941 27.434 20.881 28.374 20.881 29.596V31.664H16.651V29.596ZM24.5 27.434C25.675 27.434 26.615 28.374 26.615 29.596V31.664H22.385V29.596C22.385 28.374 23.325 27.434 24.5 27.434ZM30.234 27.434C31.409 27.434 32.349 28.374 32.349 29.596V31.664H28.119V29.596C28.119 28.374 29.059 27.434 30.234 27.434Z" fill="white"/>
</svg>
