<svg width="21" height="38" viewBox="0 0 21 38" fill="none" xmlns="http://www.w3.org/2000/svg">
<path d="M19.6884 12.608H14.7064L17.3854 0.528996L15.8344 0.199997L13.1084 12.608H1.35843C1.12343 12.608 0.888428 12.796 0.888428 13.078C0.888428 13.313 1.12343 13.548 1.35843 13.548H2.20443L2.39243 19.893L3.28543 22.995L3.89643 37.377C3.89643 37.612 4.13143 37.8 4.36643 37.8H16.7274C16.9624 37.8 17.1974 37.612 17.1974 37.377L17.8084 22.995L18.6544 19.893L18.9364 13.548H19.6884C19.9234 13.548 20.1114 13.313 20.1114 13.078C20.1114 12.796 19.9234 12.608 19.6884 12.608ZM12.8734 13.548L11.8864 18.201C11.3224 18.154 11.0404 17.966 10.7114 17.825C10.2884 17.637 9.86543 17.402 8.97243 17.402C8.07943 17.402 7.60943 17.637 7.23343 17.825C6.90443 18.013 6.57543 18.201 5.87043 18.201C5.21243 18.201 4.88343 18.013 4.55443 17.825C4.22543 17.684 3.84943 17.496 3.28543 17.449L3.14443 13.548H12.8734ZM17.8084 18.154C17.4324 18.107 17.1974 17.966 16.9624 17.825C16.5394 17.637 16.0694 17.402 15.1764 17.402C14.4244 17.402 14.0014 17.59 13.5784 17.778L14.5184 13.548H17.9494L17.8084 18.154ZM16.8684 22.619L16.2574 36.86H4.83643L4.22543 22.619L3.33243 19.517L3.28543 18.389C3.66143 18.436 3.89643 18.53 4.13143 18.671C4.55443 18.906 4.97743 19.047 5.87043 19.047C6.81043 19.047 7.23343 18.906 7.60943 18.671C7.98543 18.483 8.31443 18.342 8.97243 18.342C9.67743 18.342 9.95943 18.483 10.3354 18.671C10.7584 18.906 11.1814 19.047 12.1214 19.047C12.9674 19.047 13.4374 18.906 13.8604 18.671C14.1894 18.483 14.5184 18.342 15.1764 18.342C15.8344 18.342 16.1634 18.483 16.5394 18.671C16.8684 18.859 17.1974 19 17.7614 19.047V19.517L16.8684 22.619ZM6.85743 28.4C7.60943 28.4 8.22043 27.789 8.22043 27.037C8.22043 26.285 7.60943 25.721 6.85743 25.721C6.15243 25.721 5.49443 26.285 5.49443 27.037C5.49443 27.789 6.15243 28.4 6.85743 28.4ZM14.0014 26.238C13.2024 26.238 12.6384 26.802 12.6384 27.554C12.6384 28.306 13.2024 28.964 14.0014 28.964C14.7534 28.964 15.3174 28.306 15.3174 27.554C15.3174 26.802 14.7534 26.238 14.0014 26.238ZM10.1944 30.609C10.9934 30.609 11.5574 29.998 11.5574 29.246C11.5574 28.588 10.9934 27.93 10.1944 27.93C9.48943 27.93 8.87843 28.588 8.87843 29.246C8.87843 29.998 9.48943 30.609 10.1944 30.609ZM6.76343 32.301C7.46843 32.301 8.12643 31.69 8.12643 30.985C8.12643 30.186 7.46843 29.575 6.76343 29.575C6.01143 29.575 5.40043 30.186 5.40043 30.985C5.40043 31.69 6.01143 32.301 6.76343 32.301ZM13.7194 32.489C14.5184 32.489 15.1294 31.878 15.1294 31.126C15.1294 30.374 14.5184 29.763 13.7194 29.763C13.0144 29.763 12.4034 30.374 12.4034 31.126C12.4034 31.878 13.0144 32.489 13.7194 32.489ZM10.3824 31.737C9.67743 31.737 9.06643 32.301 9.06643 33.053C9.06643 33.805 9.67743 34.369 10.3824 34.369C11.1344 34.369 11.7454 33.805 11.7454 33.053C11.7454 32.301 11.1344 31.737 10.3824 31.737ZM7.13943 33.476C6.43443 33.476 5.77643 34.134 5.77643 34.839C5.77643 35.591 6.43443 36.202 7.13943 36.202C7.89143 36.202 8.50243 35.591 8.50243 34.839C8.50243 34.134 7.89143 33.476 7.13943 33.476ZM14.0014 33.523C13.2024 33.523 12.6384 34.134 12.6384 34.839C12.6384 35.591 13.2024 36.202 14.0014 36.202C14.7534 36.202 15.3174 35.591 15.3174 34.839C15.3174 34.134 14.7534 33.523 14.0014 33.523Z" fill="#FAFAFA"/>
</svg>
