<svg width="55" height="34" viewBox="0 0 55 34" fill="none" xmlns="http://www.w3.org/2000/svg">
<path d="M54.7836 21.4977C53.7496 16.7977 49.5196 13.2727 44.4906 13.2727C41.9526 13.2727 39.6026 14.1657 37.7696 15.6697L35.7016 13.4607L37.0646 9.23072H38.4276C39.0386 9.23072 40.1196 8.66671 40.1196 7.77371C40.1196 6.88071 39.2736 6.17572 38.0986 6.17572C36.9236 6.17572 34.9026 7.30371 32.9756 7.30371C31.0956 7.30371 30.7196 7.91472 30.7196 8.43171C30.7196 8.90171 31.0486 9.23072 31.6596 9.23072H35.5606L31.5186 21.9677H31.1426C29.7326 21.9677 28.5106 22.9547 28.0876 24.2237C27.7586 23.9417 27.2886 23.5187 26.8186 22.7667C25.8786 21.4977 24.9856 19.8057 24.1396 18.1607C23.3406 16.7507 22.6356 15.3877 21.9306 14.3067C20.8026 12.5677 19.4396 11.3927 17.7946 10.7347C16.9016 10.4057 16.0556 10.2647 15.3976 10.2177L16.8076 4.29571C16.8546 4.10771 16.8546 3.91971 16.7606 3.77871L15.4446 1.66371H19.4866C19.9096 1.66371 20.1916 1.33471 20.1916 0.958713C20.1916 0.582715 19.9096 0.253713 19.4866 0.253713H14.3636C14.1756 0.206714 13.9876 0.253713 13.8466 0.347715C13.5176 0.535715 13.4236 0.958713 13.6116 1.33471L15.3976 4.24871L13.8466 10.5937C13.7996 10.6877 13.7996 10.7347 13.7996 10.8287L13.4706 12.1917C12.5306 11.9567 11.5906 11.8627 10.6036 11.8627C10.2276 11.8627 9.89855 12.1447 9.89855 12.5677C9.89855 12.9437 10.2276 13.2727 10.6036 13.2727C11.4496 13.2727 12.2956 13.3667 13.0946 13.5547L12.9536 14.2127C12.0606 13.9777 11.1676 13.8367 10.1806 13.8367C4.68155 13.8367 0.216553 18.3017 0.216553 23.8007C0.216553 29.2997 4.68155 33.7647 10.1806 33.7647C15.6796 33.7647 20.1446 29.2997 20.1446 23.8007C20.1446 19.7587 17.7476 16.2807 14.2696 14.7297L14.4576 14.0247C18.0766 15.5287 20.6616 19.1007 20.6616 23.2837C20.6616 23.6597 20.9436 23.9887 21.3666 23.9887C21.7426 23.9887 22.0716 23.6597 22.0716 23.2837C22.0716 20.2287 20.8496 17.3617 18.6876 15.1997C17.5596 14.0717 16.2436 13.2257 14.7866 12.6147L15.0686 11.5807C15.7266 11.6277 16.4786 11.7217 17.2776 12.0507C18.6406 12.6147 19.7686 13.6017 20.7556 15.0587C21.4136 16.0927 22.1186 17.4557 22.8706 18.8187C24.5626 21.9677 26.1606 24.9757 27.9936 25.8217C28.0876 26.2447 28.2286 26.6207 28.4636 26.9497L25.9256 29.4877H24.5626C24.1396 29.4877 23.8576 29.8167 23.8576 30.1927C23.8576 30.6157 24.1396 30.8977 24.5626 30.8977H28.4166C28.8396 30.8977 29.1216 30.6157 29.1216 30.1927C29.1216 29.8167 28.8396 29.4877 28.4166 29.4877H27.8996L29.4506 27.9837C29.9676 28.3127 30.5316 28.5007 31.1896 28.5007C32.3646 28.5007 33.3986 27.8897 33.9626 26.9497L34.9966 26.8087C36.2656 30.8507 40.0256 33.7647 44.4906 33.7647C49.9896 33.7647 54.4546 29.2997 54.4546 23.8007C54.4546 23.0487 54.4076 22.3437 54.2196 21.6387C54.5016 21.5917 54.6896 21.5447 54.7836 21.4977ZM7.59555 9.60671C7.73655 10.3117 8.39455 10.9227 9.14655 10.9227H11.6376C12.3426 10.9227 13.0946 10.3587 13.2356 9.60671L14.2696 5.14171C14.4106 4.43672 13.9876 3.87271 13.2356 3.87271H8.15955C7.40755 3.87271 6.89055 4.43672 6.98455 5.18871L7.59555 9.60671ZM35.2316 14.9647L36.7826 16.6097C35.5136 17.9727 34.6206 19.6177 34.1976 21.4037C34.3386 21.5917 34.4796 21.7327 34.7146 21.8737C34.7146 21.9207 34.7146 21.9207 34.6676 21.9677H32.9756L35.2316 14.9647ZM9.71055 21.5917L9.47555 21.6857L6.56155 16.5627C7.50155 16.0927 8.58255 15.8107 9.71055 15.7167V21.5917ZM12.0606 17.8787L10.6506 21.1687V15.7167C11.3086 15.7637 11.9196 15.8577 12.5306 16.0457L12.0606 17.8787ZM5.71555 17.0327L8.67655 22.1557L8.53555 22.2967L3.41255 19.3827C4.02355 18.4427 4.82255 17.6437 5.71555 17.0327ZM16.9486 19.3827L11.8726 22.2967L11.7316 22.2027L12.0136 21.5917L14.6456 17.0327C15.5386 17.6437 16.3376 18.4427 16.9486 19.3827ZM46.0886 22.2497L48.2976 18.4427H48.4386C49.5196 18.4427 50.4596 18.9597 51.1646 19.6647L46.2766 22.4377C46.2296 22.3907 46.1826 22.2967 46.0886 22.2497ZM45.2896 21.7327L44.9606 21.5917V21.4977C45.1016 21.3097 45.2426 21.1217 45.3366 20.9337C45.7126 20.3227 46.1826 19.4767 46.8876 18.9597L45.2896 21.7327ZM2.94255 20.1817L8.06555 23.0957C8.01855 23.1897 8.01855 23.2837 7.97155 23.3307H2.09655C2.19055 22.2027 2.47255 21.1217 2.94255 20.1817ZM18.2646 23.3307H12.3896C12.3426 23.2837 12.3426 23.1897 12.3426 23.0957L17.4186 20.1817C17.8886 21.1217 18.2176 22.2027 18.2646 23.3307ZM46.7466 23.5657C46.6996 23.4717 46.6996 23.3777 46.6996 23.3307L51.7286 20.4167C51.8226 20.5577 51.9166 20.6987 51.9636 20.8397C52.0576 21.0277 52.1046 21.1687 52.1986 21.2627C52.4336 21.9677 52.5746 22.7667 52.5746 23.5657H46.7466ZM2.09655 24.2707H7.97155L8.06555 24.5057L2.94255 27.4197C2.47255 26.4797 2.19055 25.3987 2.09655 24.2707ZM17.4186 27.4197L12.3426 24.5057C12.3426 24.4117 12.3426 24.3647 12.3896 24.2707H18.2646C18.2176 25.3987 17.8886 26.4797 17.4186 27.4197ZM51.6346 27.6077L46.5586 24.6937C46.6056 24.5997 46.6056 24.5527 46.6526 24.5057H52.5746C52.4806 25.6337 52.1516 26.6677 51.6346 27.6077ZM3.41255 28.2657L8.53555 25.3047L8.67655 25.4927L5.71555 30.5687C4.82255 29.9577 4.02355 29.1587 3.41255 28.2657ZM14.6456 30.5687L11.6846 25.4927C11.7316 25.4457 11.7786 25.3517 11.8726 25.3047L16.9486 28.2657C16.3376 29.1587 15.5386 29.9577 14.6456 30.5687ZM48.8616 30.6157L45.9006 25.5397L46.0416 25.4457L51.1646 28.4067C50.5536 29.2997 49.7546 30.0517 48.8616 30.6157ZM37.8636 28.4067L42.3756 25.8217L42.9866 25.7277L40.1666 30.6157C39.2266 30.0517 38.4746 29.2997 37.8636 28.4067ZM9.71055 26.0097V31.8847C8.58255 31.8377 7.50155 31.5087 6.56155 31.0387L9.47555 25.9627C9.56955 25.9627 9.61655 26.0097 9.71055 26.0097ZM10.6506 26.0097C10.7446 26.0097 10.7916 25.9627 10.8856 25.9627L13.7996 31.0387C12.8596 31.5087 11.7786 31.8377 10.6506 31.8847V26.0097ZM44.0206 26.0097V31.8847C42.9396 31.8377 41.9056 31.5557 40.9656 31.0857L43.9266 25.9627C43.9736 26.0097 44.0206 26.0097 44.0206 26.0097ZM44.9606 26.0097C45.0076 26.0097 45.0546 25.9627 45.1016 25.9627L48.0156 31.0857C47.1226 31.5557 46.0886 31.8377 44.9606 31.8847V26.0097ZM39.9316 26.1507L37.3466 27.6077C37.1586 27.2787 37.0176 26.9027 36.8766 26.5267L39.9316 26.1507Z" fill="white"/>
</svg>
