<svg width="55" height="24" viewBox="0 0 55 24" fill="none" xmlns="http://www.w3.org/2000/svg">
<path d="M12.3424 6.783L12.5304 7.488C12.5304 7.488 14.4574 8.287 17.0894 8.287H37.8634C40.4484 8.287 42.3754 7.488 42.3754 7.488L42.6104 6.783C38.5214 7.488 37.4874 3.023 37.4404 2.882L38.3334 0.25H37.4404C36.5004 0.72 34.4324 2.647 27.4764 2.647C20.5204 2.647 18.4524 0.72 17.5124 0.25H16.5724L17.4654 2.882C17.4654 3.023 16.4314 7.488 12.3424 6.783ZM27.4764 2.13C27.8994 2.13 28.2754 1.754 28.2754 1.284C28.2754 0.860999 27.8994 0.484998 27.4764 0.484998C27.0064 0.484998 26.6304 0.860999 26.6304 1.284C26.6304 1.754 27.0064 2.13 27.4764 2.13ZM47.8744 8.146C44.7254 8.616 44.5844 5.843 44.5844 5.514L44.9134 3.775H43.9734C43.3624 4.574 43.8794 4.856 39.5554 4.997C40.1194 5.608 40.8714 5.89 41.8114 5.89C42.5164 5.89 43.1274 5.702 43.4094 5.984C43.5504 6.125 43.6914 6.595 43.3624 7.817C43.3154 8.005 43.2214 8.099 43.0334 8.193C42.9394 8.24 40.8714 9.039 38.8974 9.18V10.214H45.5244C46.8404 10.214 47.8744 9.086 47.8744 9.086V8.146ZM7.12544 8.193V9.133C7.12544 9.133 8.15944 10.261 9.47544 10.261H16.1024V9.227C14.1284 9.086 12.0604 8.287 11.9664 8.24C11.7784 8.146 11.6844 8.052 11.6374 7.864C11.3084 6.642 11.4494 6.172 11.5904 6.031C11.8724 5.749 12.4834 5.937 13.1884 5.937C14.1284 5.937 14.8804 5.655 15.4444 5.044C11.1204 4.903 11.6374 4.621 11.0264 3.822H10.0864L10.4154 5.561C10.4154 5.89 10.2744 8.663 7.12544 8.193ZM46.4644 11.906H54.9244V10.966C53.3264 9.838 51.5404 7.629 51.5404 7.629H48.4854C48.5794 7.676 48.8144 7.958 48.8144 8.522V9.086C48.8144 9.321 48.7674 9.603 48.6264 9.744C48.4384 9.932 47.7334 10.731 46.4644 10.966V11.906ZM8.53544 11.953V11.013C7.26644 10.778 6.56144 9.979 6.37344 9.791C6.23244 9.65 6.18544 9.368 6.18544 9.133V8.569C6.18544 8.005 6.42044 7.723 6.51444 7.676H3.45944C3.45944 7.676 1.67344 9.885 0.0754395 11.013V11.953H8.53544ZM37.8634 20.93V9.227H17.0424V20.93H19.0164V12.376H22.0714V20.93H25.4554V12.376H29.4504V20.93H32.8814V12.376H35.9364V20.93H37.8634ZM30.6254 11.436H24.3274V10.167H30.6254V11.436ZM16.1024 20.93V11.201H9.47544V20.93H11.4024V12.846H13.6584V20.93H16.1024ZM45.4304 20.93V11.201H38.8034V20.93H41.3414V12.846H43.5034V20.93H45.4304ZM8.53544 20.93V12.893H2.04944V20.93H8.53544ZM46.3704 20.93H52.8564V12.893H46.3704V20.93ZM2.04944 21.87V23.75H52.8564V21.87H2.04944Z" fill="white"/>
</svg>
